<svg xmlns="http://www.w3.org/2000/svg" viewBox="0 0 860 370" width="100%" height="100%" style="background:#ffffff; font-family: 'Segoe UI', Arial, sans-serif;">
  <rect x="10" y="10" width="840" height="350" rx="16" fill="#f8fafc" stroke="#e2e8f0" stroke-width="2"/>
  <text x="430" y="42" text-anchor="middle" fill="#0f172a" font-size="20" font-weight="800">KIẾN TRÚC GIAO THỨC IOT MQTT (PUBLISH / SUBSCRIBE)</text>

  <!-- ESP32 Device -->
  <rect x="40" y="90" width="200" height="210" rx="12" fill="#ffffff" stroke="#16a34a" stroke-width="2"/>
  <text x="140" y="125" text-anchor="middle" fill="#16a34a" font-size="15" font-weight="bold">THIẾT BỊ ESP32</text>
  <text x="140" y="145" text-anchor="middle" fill="#64748b" font-size="11">(Publisher &amp; Subscriber)</text>
  
  <rect x="55" y="165" width="170" height="42" rx="6" fill="#fff7ed" stroke="#ea580c"/>
  <text x="140" y="191" text-anchor="middle" fill="#ea580c" font-size="11" font-weight="bold">Cảm biến DHT22</text>
  
  <rect x="55" y="225" width="170" height="42" rx="6" fill="#eff6ff" stroke="#2563eb"/>
  <text x="140" y="251" text-anchor="middle" fill="#1d4ed8" font-size="11" font-weight="bold">Đèn LED &amp; Cửa Servo</text>

  <!-- Central MQTT Broker -->
  <rect x="330" y="80" width="200" height="230" rx="14" fill="#ffffff" stroke="#ea580c" stroke-width="3"/>
  <text x="430" y="115" text-anchor="middle" fill="#ea580c" font-size="16" font-weight="bold">MQTT BROKER</text>
  <text x="430" y="135" text-anchor="middle" fill="#64748b" font-size="11">(Máy Chủ Trung Gian)</text>
  <text x="430" y="160" text-anchor="middle" fill="#2563eb" font-size="12" font-weight="bold">broker.hivemq.com</text>
  <text x="430" y="180" text-anchor="middle" fill="#2563eb" font-size="12">Cổng: 1883</text>

  <rect x="345" y="210" width="170" height="65" rx="8" fill="#f8fafc" stroke="#cbd5e1"/>
  <text x="430" y="235" text-anchor="middle" fill="#16a34a" font-size="11" font-weight="bold">Điều phối bản tin</text>
  <text x="430" y="255" text-anchor="middle" fill="#0f172a" font-size="10" font-weight="bold">Độ trễ cực thấp &lt; 50ms</text>

  <!-- Client: Mobile App -->
  <rect x="620" y="90" width="200" height="210" rx="12" fill="#ffffff" stroke="#7c3aed" stroke-width="2"/>
  <text x="720" y="125" text-anchor="middle" fill="#7c3aed" font-size="15" font-weight="bold">APP ĐIỆN THOẠI</text>
  <text x="720" y="145" text-anchor="middle" fill="#64748b" font-size="11">(MQTT Dashboard)</text>
  
  <rect x="635" y="165" width="170" height="42" rx="6" fill="#f0fdf4" stroke="#16a34a"/>
  <text x="720" y="191" text-anchor="middle" fill="#15803d" font-size="11" font-weight="bold">Xem đồ thị nhiệt độ</text>

  <rect x="635" y="225" width="170" height="42" rx="6" fill="#fef2f2" stroke="#dc2626"/>
  <text x="720" y="251" text-anchor="middle" fill="#b91c1c" font-size="11" font-weight="bold">Bấm nút Mở cửa / Bật đèn</text>

  <!-- Telemetry Line -->
  <line x1="240" y1="185" x2="330" y2="185" stroke="#ea580c" stroke-width="2.5"/>
  <line x1="530" y1="185" x2="620" y2="185" stroke="#ea580c" stroke-width="2.5"/>
  <text x="285" y="177" fill="#ea580c" font-size="10" font-weight="bold">PUB Temp</text>
  <text x="575" y="177" fill="#ea580c" font-size="10" font-weight="bold">SUB Temp</text>

  <!-- Control Line -->
  <line x1="620" y1="245" x2="530" y2="245" stroke="#dc2626" stroke-width="2.5"/>
  <line x1="330" y1="245" x2="240" y2="245" stroke="#dc2626" stroke-width="2.5"/>
  <text x="565" y="237" fill="#dc2626" font-size="10" font-weight="bold">PUB "OPEN"</text>
  <text x="275" y="237" fill="#dc2626" font-size="10" font-weight="bold">SUB "OPEN"</text>
</svg>